<?xml version="1.0" standalone="no"?>
<!DOCTYPE svg PUBLIC "-//W3C//DTD SVG 20010904//EN"
 "http://www.w3.org/TR/2001/REC-SVG-20010904/DTD/svg10.dtd">
<svg version="1.0" xmlns="http://www.w3.org/2000/svg"
 width="260.000000pt" height="260.000000pt" viewBox="0 0 260.000000 260.000000"
 preserveAspectRatio="xMidYMid meet">
<metadata>
Created by potrace 1.14, written by Peter Selinger 2001-2017
</metadata>
<g transform="translate(0.000000,260.000000) scale(0.100000,-0.100000)"
fill="#000000" stroke="none">
<path d="M854 2410 c-12 -5 -25 -14 -30 -21 -4 -7 -7 -313 -7 -681 0 -627 2
-670 18 -688 17 -18 32 -20 195 -20 164 0 178 1 195 20 17 19 18 59 18 682 0
485 -3 669 -11 685 -7 12 -24 24 -39 26 -45 8 -316 5 -339 -3z"/>
<path d="M1428 1922 c-33 -2 -50 -8 -56 -20 -14 -30 -8 -358 7 -376 10 -12 33
-16 100 -16 l86 0 0 -392 c-1 -216 -5 -404 -9 -418 -34 -100 -155 -145 -247
-91 -37 22 -79 85 -79 119 0 26 -28 28 -247 24 l-153 -3 0 -35 c0 -54 37 -179
72 -242 66 -118 206 -228 338 -266 320 -92 662 123 716 451 4 21 7 310 7 641
0 669 5 621 -68 622 -170 4 -428 4 -467 2z"/>
<path d="M644 853 c-2 -7 -6 -19 -8 -26 -10 -34 8 -37 240 -37 545 -2 541 -2
546 18 3 9 2 26 -2 37 -7 19 -17 20 -390 20 -303 1 -383 -2 -386 -12z"/>
</g>
</svg>
