<svg xmlns="http://www.w3.org/2000/svg" xmlns:xlink="http://www.w3.org/1999/xlink" width="283px" height="313px" version="1.1"><defs/><g transform="translate(0.5,0.5)"><a xlink:href="http://www.github.com/scijava"><rect x="1" y="1" width="260" height="290" rx="39" ry="39" fill="#00ff00" stroke="#000000"/><rect x="1" y="1" width="260" height="290" rx="39" ry="39" fill="#00ff00" stroke="#000000"/><rect x="3" y="3" width="256" height="286" rx="38" ry="38" fill="#00ff00" stroke="#000000"/></a><a xlink:href="http://www.github.com/imagej"><rect x="21" y="41" width="220" height="230" rx="33" ry="33" fill="#ffff00" stroke="#000000"/><rect x="21" y="41" width="220" height="230" rx="33" ry="33" fill="#ffff00" stroke="#000000"/><rect x="23" y="43" width="216" height="226" rx="32" ry="32" fill="#ffff00" stroke="#000000"/></a><a xlink:href="http://www.github.com/scijava"><rect x="31" y="1" width="80" height="40" fill="none" stroke="none"/><g fill="#0000EE" font-family="Helvetica" text-decoration="underline" text-anchor="middle" font-size="18px"><text x="71" y="28">SciJava</text></g></a><a xlink:href="http://www.github.com/imagej"><rect x="41" y="41" width="80" height="40" fill="none" stroke="none"/><g fill="#0000EE" font-family="Helvetica" text-decoration="underline" text-anchor="middle" font-size="18px"><text x="81" y="68">ImageJ</text></g></a><a xlink:href="http://www.github.com/scifio"><rect x="41" y="81" width="180" height="70" rx="11" ry="11" fill="#add8e6" stroke="#000000"/><rect x="41" y="81" width="180" height="70" rx="11" ry="11" fill="#add8e6" stroke="#000000"/><rect x="43" y="83" width="176" height="66" rx="10" ry="10" fill="#add8e6" stroke="#000000"/></a><a xlink:href="http://www.github.com/scifio"><rect x="51" y="81" width="80" height="40" fill="none" stroke="none"/><g fill="#0000EE" font-family="Helvetica" text-decoration="underline" text-anchor="middle" font-size="18px"><text x="91" y="108">SCIFIO</text></g></a><path d="M 91 121 L 91 121" fill="none" stroke="#000000" stroke-miterlimit="10"/><path d="M 91 121 L 91 121 L 91 121 L 91 121 Z" fill="#000000" stroke="#000000" stroke-miterlimit="10"/><a xlink:href="http://www.github.com/imglib"><rect x="41" y="176" width="240" height="135" rx="20" ry="20" fill-opacity="0.5" fill="#ffc0cb" stroke="#000000" stroke-opacity="0.5"/><rect x="41" y="176" width="240" height="135" rx="20" ry="20" fill-opacity="0.5" fill="#ffc0cb" stroke="#000000" stroke-opacity="0.5"/><rect x="43" y="178" width="236" height="131" rx="20" ry="20" fill-opacity="0.5" fill="#ffc0cb" stroke="#000000" stroke-opacity="0.5"/></a><a xlink:href="http://www.github.com/imglib"><rect x="51" y="176" width="80" height="40" fill="none" stroke="none"/><g fill="#0000EE" font-family="Helvetica" text-decoration="underline" text-anchor="middle" font-size="18px"><text x="91" y="203">ImgLib2</text></g></a></g></svg>