<?xml version="1.0" encoding="UTF-8" standalone="no"?>
<svg
   xmlns:dc="http://purl.org/dc/elements/1.1/"
   xmlns:cc="http://creativecommons.org/ns#"
   xmlns:rdf="http://www.w3.org/1999/02/22-rdf-syntax-ns#"
   xmlns:svg="http://www.w3.org/2000/svg"
   xmlns="http://www.w3.org/2000/svg"
   viewBox="0 0 1181.2625 327.97501"
   height="327.97501"
   width="1181.2625"
   xml:space="preserve"
   version="1.1"
   id="svg3374"><metadata
     id="metadata3380"><rdf:RDF><cc:Work
         rdf:about=""><dc:format>image/svg+xml</dc:format><dc:type
           rdf:resource="http://purl.org/dc/dcmitype/StillImage" /><dc:title></dc:title></cc:Work></rdf:RDF></metadata><defs
     id="defs3378" /><g
     transform="matrix(1.25,0,0,-1.25,0,327.975)"
     id="g3382"><g
       transform="scale(0.1,0.1)"
       id="g3384"><path
         id="path3386"
         style="fill:#43211e;fill-opacity:1;fill-rule:nonzero;stroke:none"
         d="m 1333.92,2424.37 c -280.53,0 -544.272,-109.25 -742.643,-307.62 -198.355,-198.36 -307.605,-462.1 -307.605,-742.64 0,-280.52 109.25,-544.27 307.605,-742.63 198.371,-198.359 462.103,-307.601 742.633,-307.601 280.53,0 544.29,109.242 742.66,307.609 198.35,198.352 307.61,462.102 307.61,742.622 0,280.54 -109.26,544.28 -307.62,742.64 -198.36,198.37 -462.1,307.62 -742.64,307.62" /><path
         id="path3388"
         style="fill:#c83d21;fill-opacity:1;fill-rule:nonzero;stroke:none"
         d="m 2009.05,699.012 c -180.33,-180.34 -420.11,-279.653 -675.14,-279.653 -255.03,0 -494.789,99.313 -675.121,279.629 -180.328,180.332 -279.648,420.102 -279.648,675.132 0,255.03 99.316,494.79 279.648,675.13 180.332,180.33 420.101,279.65 675.131,279.65 255.03,0 494.8,-99.32 675.13,-279.65 180.33,-180.33 279.65,-420.09 279.65,-675.13 0,-255.03 -99.32,-494.8 -279.65,-675.108 z M 1333.92,2623.8 c -319.83,0 -639.65,-122 -883.662,-366.02 C -0.453125,1807.08 -34.8867,1097.79 346.863,607.531 L 12.9609,273.621 c -17.28121,-17.281 -17.28121,-45.281 0,-62.562 L 211.059,12.9609 c 17.281,-17.28121 45.289,-17.28121 62.554,0 L 613.508,352.84 C 828.75,200.629 1081.31,124.449 1333.91,124.449 c 319.83,0 639.65,122.012 883.67,366.02 488.03,488.019 488.03,1279.291 0,1767.311 -244.02,244.02 -563.83,366.02 -883.66,366.02" /><path
         id="path3390"
         style="fill:#eee8be;fill-opacity:1;fill-rule:nonzero;stroke:none"
         d="m 969.746,1843.54 c -23.16,-5.53 -41.476,-13.84 -54.949,-24.91 -17.973,-14.51 -32.067,-35.45 -42.254,-62.74 -10.188,-27.3 -14.145,-71.54 -14.145,-132.71 0,-7.95 1.661,-15.9 1.661,-23.85 l 0,-17.62 c 0,-40.78 -4.598,-69.73 -11.512,-86.84 -6.926,-17.1 -16.168,-29.81 -29.465,-38.1 -13.312,-8.3 -39.023,-12.44 -59.023,-12.44 l 0,-177.81 c 20,-0.7 44.265,-4.84 57.929,-12.45 13.653,-7.59 23.391,-19.87 30.645,-36.8 7.258,-16.94 10.527,-45.45 10.527,-85.54 0,-7.95 -0.355,-15.73 -0.687,-23.33 -0.703,-12.43 -1.133,-24.87 -1.133,-37.32 0,-56.32 5.988,-98.568 18.098,-126.752 12.101,-28.156 32.292,-51.359 60.632,-66.047 28.332,-14.691 76.19,-23.812 143.57,-23.812 l 60.42,0 0,171.511 c -30,0 -53.98,2.94 -65.21,8.81 -11.22,5.88 -18.03,15.9 -22.87,30.07 -4.85,14.18 -6.65,44.58 -6.65,91.24 0,51.84 -3.66,89.59 -11.61,113.27 -7.96,23.66 -17.39,41.29 -28.62,52.88 -11.233,11.57 -28.358,22.72 -51.506,33.43 22.23,9.67 38.254,19.18 47.996,28.52 12.85,12.44 22.78,28.85 29.72,49.24 9.38,26.61 14.26,63.16 14.6,109.64 0.35,46.48 1.75,74.91 4.18,85.28 4.47,19 12.12,33.16 22.94,42.32 10.83,9.14 27.08,13.79 48.73,13.79 l 18.3,0 0,170 -65.08,0 c -39.4,0 -74.48,-3.67 -105.234,-10.93" /><path
         id="path3392"
         style="fill:#eee8be;fill-opacity:1;fill-rule:nonzero;stroke:none"
         d="m 1820.43,1494.87 c -6.91,17.11 -10.37,46.06 -10.37,86.84 l 0,17.62 c 0,7.95 0.53,15.89 0.53,23.84 0,61.18 -5.11,105.41 -15.3,132.71 -10.19,27.3 -24.28,48.22 -42.25,62.73 -13.47,11.07 -31.8,19.4 -54.94,24.93 -30.77,7.26 -65.84,10.93 -105.24,10.93 l -72.8,0 0,-170 26.01,0 c 21.65,0 37.9,-4.65 48.72,-13.79 10.84,-9.16 18.48,-23.3 22.95,-42.29 2.44,-10.36 3.82,-38.81 4.16,-85.29 0.36,-46.48 5.22,-83.04 14.6,-109.65 6.95,-20.39 16.85,-36.81 29.71,-49.25 9.73,-9.33 25.71,-18.85 47.96,-28.52 -23.16,-10.71 -40.36,-21.86 -51.59,-33.43 -11.23,-11.59 -20.82,-29.22 -28.77,-52.88 -7.96,-23.68 -11.92,-61.43 -11.92,-113.27 0,-46.66 -2.42,-77.06 -7.26,-91.24 -4.84,-14.17 -14.29,-24.19 -25.51,-30.07 -11.23,-5.87 -29.06,-8.81 -69.06,-8.81 l 0,-171.511 68.13,0 c 67.39,0 115.26,9.121 143.6,23.812 28.33,14.688 48.55,37 60.66,65.168 12.08,28.172 18.14,70.861 18.14,127.191 0,12.44 -0.35,25.11 -1.04,37.54 -0.35,7.6 -0.52,15.49 -0.52,23.44 0,40.09 3.63,68.66 10.88,85.6 7.26,16.92 17.42,29.23 31.08,36.82 13.65,7.61 29.07,11.78 59.07,12.48 l 0,177.81 c -30,0 -46.29,4.14 -59.59,12.44 -13.3,8.29 -23.13,21 -30.04,38.1" /><path
         id="path3394"
         style="fill:#43211e;fill-opacity:1;fill-rule:nonzero;stroke:none"
         d="m 3385.83,2100.61 c 3.85,1.87 12.56,3.86 44.37,3.86 l 440.92,0 -14.67,73.82 c -12.2,58.94 -31.64,100.18 -59.51,132.54 -32.55,37.67 -82.56,53.64 -148.65,53.64 l -298.3,0 c -104.16,0 -174.46,-18.71 -222.36,-66.6 -47.89,-47.89 -67.57,-117.24 -67.57,-221.4 l 0,-441.18 c 0,-104.21 19.69,-179.97 67.54,-227.77 47.86,-47.91 118.18,-73.05 222.39,-73.05 l 127.84,0 c 38.93,0 60.86,-4.09 65.06,-6.19 3.26,-6.58 17.17,-24.86 17.17,-74.02 l 0,-406.1 c 0,-50.051 -13.67,-65.398 -16.8,-72.051 -3.83,-1.871 -23.56,-1.64 -55.41,-1.64 l -448.45,0 14.68,-76.028 c 12.22,-59.089 31.69,-104.242 59.44,-136.351 32.48,-37.711 82.52,-57.621 148.73,-57.621 l 305.82,0 c 104.14,0 180.48,21.5 228.39,69.39 47.88,47.891 73.6,120.02 73.6,224.172 l 0,506.369 c 0,104.09 -25.71,179.48 -73.63,227.45 -47.93,47.87 -124.26,72.62 -228.36,72.62 l -137.87,0 c -31.84,0 -40.54,3.39 -44.37,5.27 -3.12,6.57 -5.77,25.46 -5.77,75.68 l 0,340.92 c 0,50.02 2.63,67.59 5.77,74.27" /><path
         id="path3396"
         style="fill:#43211e;fill-opacity:1;fill-rule:nonzero;stroke:none"
         d="m 4741.21,1884.47 -325.87,0 c -104.15,0 -182.14,-19.36 -230.03,-67.25 -47.89,-47.89 -75.25,-117.89 -75.25,-222.04 l 0,-797.149 c 0,-104.199 27.36,-176.34 75.22,-224.16 47.86,-47.891 125.86,-69.402 230.06,-69.402 l 325.87,0 c 29.25,0 69.73,1.902 95.57,33.562 16.83,20.508 23.28,47.75 23.28,89.539 l 0,146.899 -364.51,0 c -31.83,0 -43.22,-0.231 -47.03,1.633 -3.15,6.589 -8.46,21.859 -8.46,72.058 l 0,696.89 c 0,50.02 5.29,63.23 8.46,69.91 3.83,1.87 15.23,-0.49 47.03,-0.49 l 364.51,0 0,151.17 c 0,41.7 -6.43,66.77 -23.26,87.38 -28.99,35.36 -78.77,31.45 -95.59,31.45" /><path
         id="path3398"
         style="fill:#43211e;fill-opacity:1;fill-rule:nonzero;stroke:none"
         d="m 5104.02,1854.96 c -20.93,-20.89 -33.96,-50.66 -33.96,-94.1 l 0,-1256.391 197.56,0 c 43.47,0 77.64,6 98.42,26.851 20.95,20.891 34.02,48 34.02,91.469 l 0,1261.681 -197.62,0 c -43.43,0 -77.57,-8.65 -98.42,-29.51" /><path
         id="path3400"
         style="fill:#43211e;fill-opacity:1;fill-rule:nonzero;stroke:none"
         d="m 5098.91,2337.92 c -20.86,-20.91 -28.85,-47.6 -28.85,-90.99 l 0,-202.46 207.58,0 c 43.47,0 72.63,15.49 93.41,36.33 20.95,20.89 29.01,57.48 29.01,100.95 l 0,182.72 -207.64,0 c -43.4,0 -72.51,-5.58 -93.51,-26.55" /><path
         id="path3402"
         style="fill:#c83d21;fill-opacity:1;fill-rule:nonzero;stroke:none"
         d="m 5712.29,2337.98 c -20.9,-20.91 -32.23,-47.62 -32.23,-91.05 l 0,-1687.039 c 0,-50.012 -5.84,-76.27 -8.95,-82.891 -3.82,-1.879 -15.72,-12.531 -47.56,-12.531 l -80.21,0 c -16.86,0 -68.91,5.761 -97.8,-29.598 -16.84,-20.531 -25.48,-43.781 -25.48,-85.539 l 0,-144.863 283.72,0 c 104.09,0 177.57,27.351 225.54,75.281 47.89,47.91 70.74,125.898 70.74,230.012 l 0,1854.708 -191,0 c -43.42,0 -75.86,-5.58 -96.77,-26.49" /><path
         id="path3404"
         style="fill:#c83d21;fill-opacity:1;fill-rule:nonzero;stroke:none"
         d="m 6860.06,774.469 -211.24,0 c -46.8,0 -65.58,1.902 -70.1,4.203 -1.9,3.797 -8.66,12.949 -8.66,49.437 l 0,195.531 c 0,50.02 8.15,73.94 11.31,80.61 3.84,1.87 18.08,10.22 49.9,10.22 l 228.79,0 0,-340.001 z m 16.87,1110.001 -363.49,0 c -66.15,0 -116.17,-15.19 -148.68,-52.9 -27.81,-32.23 -47.26,-81.87 -59.47,-140.89 l -14.66,-76.21 506.09,0 c 31.81,0 47.12,2.36 50.97,0.48 3.16,-6.77 12.37,-20.08 12.37,-69.9 l 0,-190.21 c -40,10.67 -60.87,9.63 -95.94,9.63 l -213.07,0 c -104.15,0 -174.98,-20.06 -222.89,-67.95 -47.89,-47.9 -68.1,-118.6 -68.1,-222.74 l 0,-275.749 c 0,-104.199 20.21,-176.34 68.08,-224.16 47.86,-47.891 118.72,-69.402 222.91,-69.402 l 200.54,0 c 29.23,0 71.09,1.902 97,33.59 6.96,8.472 12.37,17.531 16.34,29.23 5.09,-13.668 12.28,-23.707 21.57,-32.969 20.86,-20.98 52.17,-29.851 95.7,-29.851 l 197.86,0 0,1090.711 c 0,104.09 -26.28,174.08 -74.2,222.06 -47.93,47.87 -124.84,67.23 -228.93,67.23" /><path
         id="path3406"
         style="fill:#c83d21;fill-opacity:1;fill-rule:nonzero;stroke:none"
         d="m 8133.94,1861.98 c -22.36,-17.55 -38.09,-43.41 -48.11,-83.05 l -205.3,-720.07 -4.62,-23.83 -3.49,15.23 -233.83,834.21 -157.56,0 c -49.51,0 -76.44,-16.72 -90.34,-34.04 -20.75,-25.86 -26.59,-56.27 -17.39,-97.75 l 343.51,-1248.211 195.38,0 c 41.51,0 72.42,7.293 94.47,25.941 20.88,17.649 35.26,39.488 45.27,79.02 l 356.55,1275.04 -180.45,0 c -40.69,0 -71.47,-4.71 -94.09,-22.49" /><path
         id="path3408"
         style="fill:#c83d21;fill-opacity:1;fill-rule:nonzero;stroke:none"
         d="m 9140.06,774.469 -210.14,0 c -46.79,0 -66.14,1.902 -70.65,4.203 -1.91,3.797 -9.21,12.949 -9.21,49.437 l 0,195.531 c 0,50.02 8.72,73.94 11.85,80.61 3.85,1.87 18.64,10.22 50.44,10.22 l 227.71,0 0,-340.001 z m 241.35,1042.771 c -47.93,47.87 -119.29,67.23 -223.38,67.23 l -363.49,0 c -66.15,0 -116.18,-15.19 -148.7,-52.9 -27.77,-32.23 -47.23,-81.87 -59.45,-140.89 l -14.67,-76.21 506.09,0 c 31.81,0 46.57,2.36 50.44,0.48 3.17,-6.77 11.81,-20.08 11.81,-69.9 l 0,-190.21 c -20,10.67 -59.77,9.63 -94.85,9.63 l -213.05,0 c -104.16,0 -180.56,-20.06 -228.43,-67.95 -47.89,-47.9 -73.67,-118.6 -73.67,-222.74 l 0,-275.749 c 0,-104.199 25.78,-176.34 73.63,-224.16 47.83,-47.891 124.26,-69.402 228.47,-69.402 l 200.53,0 c 29.22,0 71.07,1.902 97.01,33.59 6.94,8.472 12.36,17.531 16.33,29.23 5.1,-13.668 12.26,-23.707 21.57,-32.969 20.87,-20.98 52.17,-29.851 95.7,-29.851 l 186.76,0 0,1090.711 c 0,104.09 -20.72,174.08 -68.65,222.06" /></g></g></svg>