<?xml version="1.0" encoding="UTF-8" standalone="no"?>
<!-- Created with Inkscape (http://www.inkscape.org/) -->

<svg
   width="210mm"
   height="297mm"
   viewBox="0 0 210 297"
   version="1.1"
   id="svg5"
   inkscape:version="1.1 (c68e22c387, 2021-05-23)"
   sodipodi:docname="Logo_MfR.svg"
   xmlns:inkscape="http://www.inkscape.org/namespaces/inkscape"
   xmlns:sodipodi="http://sodipodi.sourceforge.net/DTD/sodipodi-0.dtd"
   xmlns="http://www.w3.org/2000/svg"
   xmlns:svg="http://www.w3.org/2000/svg">
  <sodipodi:namedview
     id="namedview7"
     pagecolor="#505050"
     bordercolor="#eeeeee"
     borderopacity="1"
     inkscape:pageshadow="0"
     inkscape:pageopacity="0"
     inkscape:pagecheckerboard="0"
     inkscape:document-units="mm"
     showgrid="false"
     inkscape:zoom="1.5554293"
     inkscape:cx="328.84812"
     inkscape:cy="552.58057"
     inkscape:window-width="2560"
     inkscape:window-height="1377"
     inkscape:window-x="-8"
     inkscape:window-y="-8"
     inkscape:window-maximized="1"
     inkscape:current-layer="layer1" />
  <defs
     id="defs2" />
  <g
     inkscape:label="Layer 1"
     inkscape:groupmode="layer"
     id="layer1">
    <rect
       style="fill:#000000;stroke-width:0.272365"
       id="rect83-2"
       width="107.16496"
       height="107.16496"
       x="22.453608"
       y="61.067017"
       ry="7.0042448" />
    <rect
       style="fill:#ffffff;stroke-width:0.264583"
       id="rect83"
       width="104.10309"
       height="104.10309"
       x="24.154634"
       y="62.427837"
       ry="6.8041239" />
    <rect
       style="fill:#0000ff;stroke-width:0.258112"
       id="rect1397-9-6"
       width="35.843697"
       height="37.00531"
       x="33.340206"
       y="109.84013" />
    <path
       sodipodi:type="star"
       style="fill:#ff0000"
       id="path825"
       inkscape:flatsided="false"
       sodipodi:sides="7"
       sodipodi:cx="586.33331"
       sodipodi:cy="430.74924"
       sodipodi:r1="84.868904"
       sodipodi:r2="42.434452"
       sodipodi:arg1="2.2703842"
       sodipodi:arg2="2.7191832"
       inkscape:rounded="0"
       inkscape:randomized="0"
       d="m 531.68602,495.68308 15.94267,-47.53744 -46.13473,-19.63579 47.10636,-17.17463 -13.41266,-48.31229 42.79801,26.12102 29.40941,-40.60866 6.26188,49.74703 50.0856,-2.32588 -34.98957,35.91249 33.04631,37.70834 -49.89316,-4.96488 -8.87753,49.34741 -27.22618,-42.10359 z"
       transform="matrix(0.26458333,0,0,0.26458333,-53.242268,-24.835052)"
       inkscape:transform-center-x="0.98294279"
       inkscape:transform-center-y="0.13184313" />
    <rect
       style="fill:#ffffff;stroke-width:0.247434"
       id="rect1397-9"
       width="34.360825"
       height="35.47438"
       x="34.190723"
       y="110.52054" />
    <path
       sodipodi:type="star"
       style="fill:#ffffff"
       id="path825-0"
       inkscape:flatsided="false"
       sodipodi:sides="7"
       sodipodi:cx="586.33331"
       sodipodi:cy="430.74924"
       sodipodi:r1="84.868904"
       sodipodi:r2="42.434452"
       sodipodi:arg1="2.2703842"
       sodipodi:arg2="2.7191832"
       inkscape:rounded="0"
       inkscape:randomized="0"
       transform="matrix(0.23418847,0,0,0.23418847,-35.461385,-11.775279)"
       inkscape:transform-center-x="0.87002602"
       inkscape:transform-center-y="0.11669654"
       d="m 531.68602,495.68308 15.94267,-47.53744 -46.13473,-19.63579 47.10636,-17.17463 -13.41266,-48.31229 42.79801,26.12102 29.40941,-40.60866 6.26188,49.74703 50.0856,-2.32588 -34.98957,35.91249 33.04631,37.70834 -49.89316,-4.96488 -8.87753,49.34741 -27.22618,-42.10359 z" />
    <rect
       style="fill:#000000;stroke-width:0.264583"
       id="rect83-7"
       width="104.10309"
       height="104.10309"
       x="65.105583"
       y="106.80947"
       ry="6.8041239" />
    <path
       sodipodi:type="star"
       style="fill:#ffffff"
       id="path825-9"
       inkscape:flatsided="false"
       sodipodi:sides="7"
       sodipodi:cx="586.33331"
       sodipodi:cy="430.74924"
       sodipodi:r1="84.868904"
       sodipodi:r2="42.434452"
       sodipodi:arg1="2.2703842"
       sodipodi:arg2="2.7191832"
       inkscape:rounded="0"
       inkscape:randomized="0"
       transform="matrix(0.26458333,0,0,0.26458333,-11.801737,24.281657)"
       inkscape:transform-center-x="0.98294279"
       inkscape:transform-center-y="0.13184313"
       d="m 531.68602,495.68308 15.94267,-47.53744 -46.13473,-19.63579 47.10636,-17.17463 -13.41266,-48.31229 42.79801,26.12102 29.40941,-40.60866 6.26188,49.74703 50.0856,-2.32588 -34.98957,35.91249 33.04631,37.70834 -49.89316,-4.96488 -8.87753,49.34741 -27.22618,-42.10359 z" />
    <rect
       style="fill:#ffffff;stroke-width:0.247434"
       id="rect1397"
       width="34.360825"
       height="35.47438"
       x="79.564339"
       y="153.92804" />
  </g>
</svg>
