<svg viewBox="0 0 96 96" xmlns="http://www.w3.org/2000/svg" xmlns:xlink="http://www.w3.org/1999/xlink" id="Icons_Label_M" overflow="hidden"><g id="Icons"><path d="M77.6 49.257 49.269 20.93C48.525 20.1634 47.5052 19.7263 46.437 19.716L27.82 19.716C23.3554 19.7286 19.7392 23.3444 19.726 27.809L19.726 46.323C19.6963 47.3996 20.14 48.435 20.94 49.156L49.269 77.482C50.826 79.0748 53.3794 79.1038 54.9722 77.5468 54.994 77.5255 55.0156 77.5039 55.037 77.482L77.6 54.922C79.1174 53.3385 79.1174 50.8405 77.6 49.257ZM76.186 53.508 53.623 76.068C52.8471 76.8796 51.5602 76.9085 50.7486 76.1326 50.7266 76.1116 50.7051 76.09 50.684 76.068L22.354 47.741 22.307 47.694 22.257 47.65C21.8963 47.3053 21.7027 46.8213 21.726 46.323L21.726 27.809C21.7397 24.4492 24.4602 21.7292 27.82 21.716L46.437 21.716C46.9751 21.7251 47.4866 21.9516 47.855 22.344L76.185 50.671C76.9203 51.4737 76.9203 52.7053 76.185 53.508Z"/><rect x="31.369" y="43.311" width="26" height="2" transform="matrix(0.707107 -0.707107 0.707107 0.707107 -18.337 44.352)"/><rect x="38.44" y="50.382" width="26" height="2" transform="matrix(0.707107 -0.707107 0.707107 0.707107 -21.266 51.423)"/><rect x="45.512" y="57.454" width="26" height="2" transform="matrix(0.707107 -0.707107 0.707107 0.707107 -24.195 58.494)"/><path d="M28.105 24.048C25.8959 24.0486 24.1055 25.84 24.1061 28.0491 24.1068 30.2583 25.8982 32.0486 28.1073 32.048 30.3164 32.0474 32.1068 30.256 32.1061 28.0469 32.1058 26.9861 31.6842 25.9689 30.934 25.219 30.1844 24.4677 29.1663 24.0463 28.105 24.048ZM29.52 29.462C28.7388 30.2429 27.4725 30.2426 26.6916 29.4614 25.9107 28.6802 25.9109 27.4139 26.6921 26.633 27.4731 25.8523 28.739 25.8523 29.52 26.633 30.3012 27.4037 30.3097 28.6618 29.539 29.443 29.5327 29.4494 29.5264 29.4557 29.52 29.462Z"/></g></svg>