<?xml version="1.0" encoding="UTF-8" standalone="no"?>
<!DOCTYPE svg PUBLIC "-//W3C//DTD SVG 1.1//EN" "http://www.w3.org/Graphics/SVG/1.1/DTD/svg11.dtd">
<svg version="1.1" xmlns="http://www.w3.org/2000/svg" xmlns:xlink="http://www.w3.org/1999/xlink" preserveAspectRatio="xMidYMid meet" viewBox="0 0 200 200" width="200" height="200"><defs><path d="M33.9 34.24L164.85 34.24L164.85 165.2L33.9 165.2L33.9 34.24Z" id="ebNXG2k22M"></path><path d="M102.57 90.65L102.58 90.65L102.59 90.66L102.6 90.66L102.62 90.66L102.63 90.66L102.64 90.67L102.65 90.67L102.66 90.68L102.67 90.68L102.69 90.69L102.7 90.69L102.71 90.7L102.72 90.71L102.73 90.71L102.74 90.72L102.75 90.73L102.76 90.74L102.76 90.74L102.77 90.75L102.78 90.76L102.79 90.77L102.8 90.78L102.8 90.79L102.81 90.8L102.82 90.81L102.82 90.82L102.83 90.83L102.83 90.84L102.84 90.85L102.84 90.87L102.84 90.88L102.85 90.89L102.85 90.9L102.85 90.91L102.85 90.93L102.86 90.94L102.86 90.95L102.86 90.96L102.86 97.2L109.21 97.2L109.22 97.2L109.23 97.2L109.25 97.2L109.26 97.2L109.27 97.2L109.28 97.2L109.29 97.21L109.31 97.21L109.32 97.22L109.33 97.22L109.34 97.23L109.35 97.23L109.36 97.24L109.37 97.24L109.38 97.25L109.39 97.26L109.4 97.26L109.41 97.27L109.42 97.28L109.43 97.29L109.44 97.3L109.45 97.3L109.46 97.31L109.46 97.32L109.47 97.33L109.48 97.34L109.48 97.35L109.49 97.36L109.49 97.38L109.5 97.39L109.5 97.4L109.51 97.41L109.51 97.42L109.51 97.43L109.52 97.44L109.52 97.46L109.52 97.47L109.52 97.48L109.52 97.49L109.52 97.51L109.52 102.49L109.52 102.51L109.52 102.52L109.52 102.53L109.52 102.54L109.52 102.56L109.51 102.57L109.51 102.58L109.51 102.59L109.5 102.6L109.5 102.61L109.49 102.62L109.49 102.64L109.48 102.65L109.48 102.66L109.47 102.67L109.46 102.68L109.46 102.69L109.45 102.7L109.44 102.7L109.43 102.71L109.42 102.72L109.41 102.73L109.4 102.74L109.39 102.74L109.38 102.75L109.37 102.76L109.36 102.76L109.35 102.77L109.34 102.77L109.33 102.78L109.32 102.78L109.31 102.79L109.29 102.79L109.28 102.8L109.27 102.8L109.26 102.8L109.25 102.8L109.23 102.8L109.22 102.8L109.21 102.8L102.86 102.8L102.86 109.04L102.86 109.05L102.86 109.06L102.85 109.07L102.85 109.09L102.85 109.1L102.85 109.11L102.84 109.12L102.84 109.13L102.84 109.15L102.83 109.16L102.83 109.17L102.82 109.18L102.82 109.19L102.81 109.2L102.8 109.21L102.8 109.22L102.79 109.23L102.78 109.24L102.77 109.25L102.76 109.26L102.76 109.26L102.75 109.27L102.74 109.28L102.73 109.29L102.72 109.29L102.71 109.3L102.7 109.31L102.69 109.31L102.67 109.32L102.66 109.32L102.65 109.33L102.64 109.33L102.63 109.34L102.62 109.34L102.6 109.34L102.59 109.34L102.58 109.35L102.57 109.35L102.55 109.35L102.54 109.35L97.46 109.35L97.45 109.35L97.43 109.35L97.42 109.35L97.41 109.34L97.4 109.34L97.38 109.34L97.37 109.34L97.36 109.33L97.35 109.33L97.34 109.32L97.33 109.32L97.31 109.31L97.3 109.31L97.29 109.3L97.28 109.29L97.27 109.29L97.26 109.28L97.25 109.27L97.24 109.26L97.24 109.26L97.23 109.25L97.22 109.24L97.21 109.23L97.2 109.22L97.2 109.21L97.19 109.2L97.18 109.19L97.18 109.18L97.17 109.17L97.17 109.16L97.16 109.15L97.16 109.13L97.16 109.12L97.15 109.11L97.15 109.1L97.15 109.09L97.15 109.07L97.14 109.06L97.14 109.05L97.14 109.04L97.14 102.8L90.79 102.8L90.78 102.8L90.77 102.8L90.75 102.8L90.74 102.8L90.73 102.8L90.72 102.8L90.71 102.79L90.69 102.79L90.68 102.78L90.67 102.78L90.66 102.77L90.65 102.77L90.64 102.76L90.63 102.76L90.62 102.75L90.61 102.74L90.6 102.74L90.59 102.73L90.58 102.72L90.57 102.71L90.56 102.7L90.55 102.7L90.54 102.69L90.54 102.68L90.53 102.67L90.52 102.66L90.52 102.65L90.51 102.64L90.51 102.62L90.5 102.61L90.5 102.6L90.49 102.59L90.49 102.58L90.49 102.57L90.48 102.56L90.48 102.54L90.48 102.53L90.48 102.52L90.48 102.51L90.48 102.49L90.48 97.51L90.48 97.49L90.48 97.48L90.48 97.47L90.48 97.46L90.48 97.44L90.49 97.43L90.49 97.42L90.49 97.41L90.5 97.4L90.5 97.39L90.51 97.38L90.51 97.36L90.52 97.35L90.52 97.34L90.53 97.33L90.54 97.32L90.54 97.31L90.55 97.3L90.56 97.3L90.57 97.29L90.58 97.28L90.59 97.27L90.6 97.26L90.61 97.26L90.62 97.25L90.63 97.24L90.64 97.24L90.65 97.23L90.66 97.23L90.67 97.22L90.68 97.22L90.69 97.21L90.71 97.21L90.72 97.2L90.73 97.2L90.74 97.2L90.75 97.2L90.77 97.2L90.78 97.2L90.79 97.2L97.14 97.2L97.14 90.96L97.14 90.95L97.14 90.94L97.15 90.93L97.15 90.91L97.15 90.9L97.15 90.89L97.16 90.88L97.16 90.87L97.16 90.85L97.17 90.84L97.17 90.83L97.18 90.82L97.18 90.81L97.19 90.8L97.2 90.79L97.2 90.78L97.21 90.77L97.22 90.76L97.23 90.75L97.24 90.74L97.24 90.74L97.25 90.73L97.26 90.72L97.27 90.71L97.28 90.71L97.29 90.7L97.3 90.69L97.31 90.69L97.33 90.68L97.34 90.68L97.35 90.67L97.36 90.67L97.37 90.66L97.38 90.66L97.4 90.66L97.41 90.66L97.42 90.65L97.43 90.65L97.45 90.65L97.46 90.65L102.54 90.65L102.55 90.65L102.57 90.65Z" id="a35qd6EEpH"></path><path d="M161.62 118.24L100 100L123.49 159.82L135.58 146.64L180.71 188.03L194.7 172.77L149.57 131.38L161.62 118.24Z" id="ehibyDLtl"></path></defs><g><g><g><use xlink:href="#ebNXG2k22M" opacity="1" fill="#ffffff" fill-opacity="1"></use><g><use xlink:href="#ebNXG2k22M" opacity="1" fill-opacity="0" stroke="#ff0000" stroke-width="6" stroke-opacity="1"></use></g></g><g><use xlink:href="#a35qd6EEpH" opacity="1" fill="#f3e609" fill-opacity="0.99"></use><g><use xlink:href="#a35qd6EEpH" opacity="1" fill-opacity="0" stroke="#f3ee09" stroke-width="3" stroke-opacity="0"></use></g></g><g><g><filter id="shadow8538385" x="87" y="87" width="125.7" height="119.03" filterUnits="userSpaceOnUse" primitiveUnits="userSpaceOnUse"><feFlood></feFlood><feComposite in2="SourceAlpha" operator="in"></feComposite><feGaussianBlur stdDeviation="1"></feGaussianBlur><feOffset dx="5" dy="5" result="afterOffset"></feOffset><feFlood flood-color="#000000" flood-opacity="0.5"></feFlood><feComposite in2="afterOffset" operator="in"></feComposite><feMorphology operator="dilate" radius="1"></feMorphology><feComposite in2="SourceAlpha" operator="out"></feComposite></filter><path d="M161.62 118.24L100 100L123.49 159.82L135.58 146.64L180.71 188.03L194.7 172.77L149.57 131.38L161.62 118.24Z" id="j7NyoV9ph" fill="white" fill-opacity="1" filter="url(#shadow8538385)"></path></g><use xlink:href="#ehibyDLtl" opacity="1" fill="#ffffff" fill-opacity="1"></use><g><use xlink:href="#ehibyDLtl" opacity="1" fill-opacity="0" stroke="#000000" stroke-width="2" stroke-opacity="1"></use></g></g></g></g></svg>