<?xml version="1.0" encoding="UTF-8" standalone="no"?>
<!DOCTYPE svg PUBLIC "-//W3C//DTD SVG 1.1//EN" "http://www.w3.org/Graphics/SVG/1.1/DTD/svg11.dtd">
<svg xmlns:svg="http://www.w3.org/2000/svg" xmlns="http://www.w3.org/2000/svg" xmlns:xlink="http://www.w3.org/1999/xlink" version="1.1" width="400" height="400">
  <defs>
    <linearGradient id="lg0">
      <stop style="stop-color:#c5942f"/>
      <stop style="stop-color:#80630e" offset="1"/>
    </linearGradient>
    <linearGradient id="lg1">
      <stop style="stop-color:#4a3302"/>
      <stop style="stop-color:#c99414" offset="1"/>
    </linearGradient>
    <linearGradient id="lg2">
      <stop style="stop-color:#474747"/>
      <stop style="stop-color:#595959" offset="0.25"/>
      <stop style="stop-color:#a3a3a3;stop-opacity:0.49803922" offset="0.71875"/>
      <stop style="stop-color:#fff;stop-opacity:0" offset="1"/>
    </linearGradient>
    <linearGradient id="lg3">
      <stop style="stop-color:#fdde61"/>
      <stop style="stop-color:#cc9021" offset="1"/>
    </linearGradient>
    <linearGradient id="lg4">
      <stop style="stop-color:#974f05"/>
      <stop style="stop-color:#deb764" offset="1"/>
    </linearGradient>
    <linearGradient id="lg5">
      <stop style="stop-color:#e3140f"/>
      <stop style="stop-color:#fee7e7" offset="0.25"/>
      <stop style="stop-color:#e3140f" offset="1"/>
    </linearGradient>
    <linearGradient id="lg6">
      <stop style="stop-color:#fff;stop-opacity:0.60000002"/>
      <stop style="stop-color:#fff;stop-opacity:0" offset="1"/>
    </linearGradient>
    <linearGradient id="lg7">
      <stop style="stop-color:#b77617"/>
      <stop style="stop-color:#fff;stop-opacity:0.4742268" offset="1"/>
    </linearGradient>
    <linearGradient id="lg8">
      <stop style="stop-color:#96af96"/>
      <stop style="stop-color:#96af96;stop-opacity:0" offset="1"/>
    </linearGradient>
    <linearGradient x1="28.990112" y1="223.75455" x2="93.495056" y2="255.75455" id="lg9" xlink:href="#lg8" gradientUnits="userSpaceOnUse"/>
    <linearGradient x1="62.90543" y1="270.32535" x2="105.5" y2="314.32535" id="lg10" xlink:href="#lg8" gradientUnits="userSpaceOnUse"/>
    <linearGradient x1="130.23703" y1="315.5" x2="148" y2="203.75" id="lg11" xlink:href="#lg7" gradientUnits="userSpaceOnUse"/>
    <linearGradient x1="159.19325" y1="290" x2="236" y2="119.25" id="lg12" xlink:href="#lg7" gradientUnits="userSpaceOnUse"/>
    <linearGradient x1="194.55725" y1="312.75" x2="209.5" y2="198.75" id="lg13" xlink:href="#lg7" gradientUnits="userSpaceOnUse"/>
    <linearGradient x1="233.8793" y1="307.75" x2="261" y2="141.25" id="lg14" xlink:href="#lg7" gradientUnits="userSpaceOnUse"/>
    <linearGradient x1="280.21573" y1="314.5" x2="299" y2="130" id="lg15" xlink:href="#lg7" gradientUnits="userSpaceOnUse"/>
    <linearGradient x1="297.85538" y1="275.75" x2="318.5" y2="140.75" id="lg16" xlink:href="#lg7" gradientUnits="userSpaceOnUse"/>
    <linearGradient x1="130.71852" y1="313.58194" x2="313.5" y2="313.58194" id="lg17" xlink:href="#lg6" gradientUnits="userSpaceOnUse"/>
    <linearGradient x1="311.74066" y1="82.801445" x2="196.1163" y2="226.55548" id="lg18" xlink:href="#lg6" gradientUnits="userSpaceOnUse"/>
    <linearGradient x1="170.05917" y1="150.74486" x2="329.51175" y2="235.24411" id="lg19" xlink:href="#lg5" gradientUnits="userSpaceOnUse"/>
    <linearGradient x1="235.46655" y1="377" x2="297.90454" y2="86.179321" id="lg20" xlink:href="#lg4" gradientUnits="userSpaceOnUse"/>
    <linearGradient x1="262.09396" y1="370" x2="262.12027" y2="81.460526" id="lg21" xlink:href="#lg3" gradientUnits="userSpaceOnUse"/>
    <radialGradient cx="220" cy="348" r="268" fx="220" fy="348" id="rg0" xlink:href="#lg2" gradientUnits="userSpaceOnUse" gradientTransform="matrix(1,0,0,0.298507,0,244.1194)"/>
    <linearGradient x1="324.47333" y1="112.21959" x2="324.47333" y2="61.49847" id="lg22" xlink:href="#lg4" gradientUnits="userSpaceOnUse"/>
    <linearGradient x1="335.02939" y1="108.55505" x2="294.73615" y2="73.787857" id="lg23" xlink:href="#lg3" gradientUnits="userSpaceOnUse"/>
    <linearGradient x1="292" y1="73.862823" x2="319.11377" y2="85.680908" id="lg24" xlink:href="#lg6" gradientUnits="userSpaceOnUse"/>
    <linearGradient x1="363.22885" y1="21.080086" x2="336.45242" y2="55.197987" id="lg25" xlink:href="#lg6" gradientUnits="userSpaceOnUse"/>
    <linearGradient x1="314" y1="84.823364" x2="370.25" y2="14.323364" id="lg26" xlink:href="#lg1" gradientUnits="userSpaceOnUse"/>
    <linearGradient x1="340.5834" y1="61.407673" x2="331.3334" y2="53.657673" id="lg27" xlink:href="#lg0" gradientUnits="userSpaceOnUse"/>
  </defs>
  <path d="M 488 348 A 268 80 0 1 1  -48,348 A 268 80 0 1 1  488 348z" transform="matrix(0.66791,0,0,0.639287,73.0597,123.528)" style="opacity:1;fill:url(#rg0)"/>
  <path d="M 161.5,184.5 C 136.94332,122.92617 53.222358,144.42886 76.5,203.5 C 44.71098,200.74692 34.300252,220.99119 51,247.5 C 3.082768,254.40434 9.2883526,295.00784 36.5,312.5 L 171.5,315" style="fill:url(#lg9)"/>
  <path d="M 138.5,233 C 106.97757,221.73306 95.380054,246.22674 95.5,265.5 C 74.850893,260.62282 60.977865,275.09635 60,293.5 C 22.860089,290.40607 11.903628,347.44724 60,348.5 L 172.5,274.5" style="fill:url(#lg10)"/>
  <path d="M 166.49332,371.1854 C 166.49332,371.1854 103.03048,360.61835 103.03048,296.0553 C 103.03048,229.4807 196.78727,117.03397 237.5,93 C 264.5904,77.007706 284.5,76.5 313.5,81.5 C 342.5,86.5 353,108 353,124.5 C 353,156.48201 315.5,223.17093 315.5,254 C 315.5,311.00219 386.5,304.5 386.5,304.5 C 382.4675,320.97045 366.08042,326.84583 347.5,328.5 C 353.26974,333.86278 360.0341,339.50974 375,347.5 C 332.8751,351.27896 330.70189,344.63574 317,341 C 321.90541,348.70992 327.59797,357.69211 335.5,366 C 313.38345,367.01632 294.13486,359.42875 276,348.5 C 277.3365,357.83333 277.41798,367.16667 282.5,376.5 C 254.50792,371.22067 229.32913,361.44005 208,345.5 C 208.86482,353.36482 209.91239,361.41239 216,374.5 C 199.30997,370.38318 181.66449,361.48909 161,337.5 C 159.22407,346.02319 163.11956,358.79995 166.49332,371.1854z" style="fill:url(#lg20)"/>
  <path d="M 158.99332,364.6854 C 145.44755,357.55794 107.03048,349.62998 107.03048,294.5553 C 107.03048,227.9807 198.78727,121.03397 239.5,97 C 266.5904,81.007706 283.5,79.5 312.5,84.5 C 341.5,89.5 348.5,109.5 348.5,126 C 348.5,157.98201 311.5,223.67093 311.5,254.5 C 311.5,311.50219 379,309 379,309 C 368.9675,322.97045 357.58042,322.84583 339,324.5 C 344.76974,329.86278 344.0341,335.50974 359,343.5 C 339.8751,346.27896 324.70189,339.13574 311.5,335 C 316.40541,342.70992 316.59797,352.19211 324.5,360.5 C 303.88345,361.51632 283.63486,347.92875 272.5,338.5 C 270.8365,349.83333 272.41798,362.16667 274,369.5 C 247.00792,364.22067 218.32913,349.44005 204,335 C 202.36482,344.36482 204.41239,356.41239 208.5,367.5 C 191.39618,363.13491 173.16819,346.69131 158,326 C 156.22407,332.41229 155.61956,347.91968 158.99332,364.6854z" style="fill:url(#lg21)"/>
  <path d="M 148,222 C 122.67451,265.01387 121.42357,293.76134 132,315.5 C 125.88176,276.40532 137.26585,249.42764 148,222z" style="fill:url(#lg11)"/>
  <path d="M 230,150.5 C 194.00561,193.33488 147.2032,233.19755 162,290 C 158.42271,241.58349 191.81607,194.57039 230,150.5z" style="fill:url(#lg12)"/>
  <path d="M 212.5,207 C 192.84989,241.82883 182.17187,277.69291 197,316.5 C 191.66423,276.9993 199.23504,241.1862 212.5,207z" style="fill:url(#lg13)"/>
  <path d="M 261,160 C 236.08072,208.56553 214.46727,256.86301 238,301.5 C 226.56641,254.33333 240.72043,207.16667 261,160z" style="fill:url(#lg14)"/>
  <path d="M 304,135.5 C 279.86965,188.69146 253.67957,241.2544 285.5,314.5 C 268.11827,249.31984 278.82721,196.72281 304,135.5z" style="fill:url(#lg15)"/>
  <path d="M 322.5,147 C 296.27408,202.33611 294.97278,238.97875 300.5,270.5 C 301.55491,229.33333 310.85723,188.16667 322.5,147z" style="fill:url(#lg16)"/>
  <path d="M 151.5,352 C 149.87133,332.37292 153.07123,321.09867 157.07254,319.77957 C 160.01297,318.81021 178.15237,348.20125 200.5,358 C 200.5,358 196.87774,332.00962 201,329.75 C 203.76159,328.23624 222.12833,343.66889 250,341 C 283.19094,280.13189 313.5,320.55573 313.5,289.5 C 313.5,240.9735 139.30032,290.61429 131.125,321.125 C 127.99243,332.81591 143.75,347.25 151.5,352z" style="fill:url(#lg17)"/>
  <path d="M 191.41883,134.9814 L 163.84167,168.21542 C 170.55008,201.90608 219.42524,231.77715 325.39044,210.99538 L 337.0577,180.23624 C 236.58041,194.56785 200.7006,174.23891 191.41883,134.9814z" style="fill:url(#lg19);stroke:#991d03;stroke-width:2.5"/>
  <path d="M 260.5,194.5 C 141.94088,304.52113 147.74909,214.92297 191.5,150 C 263.90023,42.563634 341.534,88.698868 338,120 C 331,182 317.30876,141.7823 260.5,194.5z" style="fill:url(#lg18)"/>
  <path d="M 294.50997,104.42937 C 342.21018,129.70792 365.12119,86.322835 329.86531,68.720472 C 282.34646,44.995517 259.24704,85.741904 294.50997,104.42937z" style="fill:url(#lg22)"/>
  <path d="M 297.53797,101.49359 C 339.99206,124.11935 360.22739,86.500789 327.86518,70.88449 C 286.36203,50.857264 266.98081,85.208258 297.53797,101.49359z" style="fill:url(#lg23)"/>
  <path d="M 297.57565,87.33007 C 328.98235,100.08615 344.3056,80.645106 320.36468,71.840855 C 289.66146,60.549786 274.97006,78.148628 297.57565,87.33007z" style="fill:url(#lg24)"/>
  <path d="M 350,12.5 L 389,12.5 L 325,87 C 310.52287,89.635197 305.5093,84.003368 305.5,74 L 350,12.5z" style="fill:url(#lg26)"/>
  <path d="M 351.64337,19.04074 L 378.09545,19.04074 L 323.98442,81.986068 C 314.85256,84.162533 309.93763,81.98596 310.63706,73.547192 L 351.64337,19.04074z" style="fill:url(#lg27)"/>
  <path d="M 352.70403,19.217517 L 367.38834,19.04074 L 331.23226,65.192282 C 322.21741,72.410747 315.57025,69.294834 335.20902,41.904164 L 352.70403,19.217517z" style="fill:url(#lg25)"/>
</svg>
