<?xml version="1.0" encoding="UTF-8" standalone="no"?>
<svg
   xmlns:dc="http://purl.org/dc/elements/1.1/"
   xmlns:cc="http://creativecommons.org/ns#"
   xmlns:rdf="http://www.w3.org/1999/02/22-rdf-syntax-ns#"
   xmlns:svg="http://www.w3.org/2000/svg"
   xmlns="http://www.w3.org/2000/svg"
   xmlns:sodipodi="http://sodipodi.sourceforge.net/DTD/sodipodi-0.dtd"
   xmlns:inkscape="http://www.inkscape.org/namespaces/inkscape"
   id="svg3374"
   version="1.1"
   xml:space="preserve"
   width="322.95032"
   height="327.97501"
   viewBox="0 0 322.95033 327.97501"
   inkscape:version="0.91 r13725"
   sodipodi:docname="scijava-icon.svg"><sodipodi:namedview
     pagecolor="#ffffff"
     bordercolor="#666666"
     borderopacity="1"
     objecttolerance="10"
     gridtolerance="10"
     guidetolerance="10"
     inkscape:pageopacity="0"
     inkscape:pageshadow="2"
     inkscape:window-width="660"
     inkscape:window-height="480"
     id="namedview3451"
     showgrid="false"
     fit-margin-top="0"
     fit-margin-left="0"
     fit-margin-right="0"
     fit-margin-bottom="0"
     inkscape:zoom="0.23195523"
     inkscape:cx="272.37316"
     inkscape:cy="163.98747"
     inkscape:window-x="0"
     inkscape:window-y="0"
     inkscape:window-maximized="0"
     inkscape:current-layer="svg3374" /><metadata
     id="metadata3380"><rdf:RDF><cc:Work
         rdf:about=""><dc:format>image/svg+xml</dc:format><dc:type
           rdf:resource="http://purl.org/dc/dcmitype/StillImage" /><dc:title></dc:title></cc:Work></rdf:RDF></metadata><defs
     id="defs3378" /><g
     id="g3382"
     transform="matrix(1.25,0,0,-1.25,9.375e-7,327.975)"><g
       id="g3384"
       transform="scale(0.1,0.1)"><path
         d="m 1333.92,2424.37 c -280.53,0 -544.272,-109.25 -742.643,-307.62 -198.355,-198.36 -307.605,-462.1 -307.605,-742.64 0,-280.52 109.25,-544.27 307.605,-742.63 198.371,-198.359 462.103,-307.601 742.633,-307.601 280.53,0 544.29,109.242 742.66,307.609 198.35,198.352 307.61,462.102 307.61,742.622 0,280.54 -109.26,544.28 -307.62,742.64 -198.36,198.37 -462.1,307.62 -742.64,307.62"
         style="fill:#43211e;fill-opacity:1;fill-rule:nonzero;stroke:none"
         id="path3386"
         inkscape:connector-curvature="0" /><path
         d="m 2009.05,699.012 c -180.33,-180.34 -420.11,-279.653 -675.14,-279.653 -255.03,0 -494.789,99.313 -675.121,279.629 -180.328,180.332 -279.648,420.102 -279.648,675.132 0,255.03 99.316,494.79 279.648,675.13 180.332,180.33 420.101,279.65 675.131,279.65 255.03,0 494.8,-99.32 675.13,-279.65 180.33,-180.33 279.65,-420.09 279.65,-675.13 0,-255.03 -99.32,-494.8 -279.65,-675.108 z M 1333.92,2623.8 c -319.83,0 -639.65,-122 -883.662,-366.02 C -0.453125,1807.08 -34.8867,1097.79 346.863,607.531 L 12.9609,273.621 c -17.28121,-17.281 -17.28121,-45.281 0,-62.562 L 211.059,12.9609 c 17.281,-17.28121 45.289,-17.28121 62.554,0 L 613.508,352.84 C 828.75,200.629 1081.31,124.449 1333.91,124.449 c 319.83,0 639.65,122.012 883.67,366.02 488.03,488.019 488.03,1279.291 0,1767.311 -244.02,244.02 -563.83,366.02 -883.66,366.02"
         style="fill:#c83d21;fill-opacity:1;fill-rule:nonzero;stroke:none"
         id="path3388"
         inkscape:connector-curvature="0" /><path
         d="m 969.746,1843.54 c -23.16,-5.53 -41.476,-13.84 -54.949,-24.91 -17.973,-14.51 -32.067,-35.45 -42.254,-62.74 -10.188,-27.3 -14.145,-71.54 -14.145,-132.71 0,-7.95 1.661,-15.9 1.661,-23.85 l 0,-17.62 c 0,-40.78 -4.598,-69.73 -11.512,-86.84 -6.926,-17.1 -16.168,-29.81 -29.465,-38.1 -13.312,-8.3 -39.023,-12.44 -59.023,-12.44 l 0,-177.81 c 20,-0.7 44.265,-4.84 57.929,-12.45 13.653,-7.59 23.391,-19.87 30.645,-36.8 7.258,-16.94 10.527,-45.45 10.527,-85.54 0,-7.95 -0.355,-15.73 -0.687,-23.33 -0.703,-12.43 -1.133,-24.87 -1.133,-37.32 0,-56.32 5.988,-98.568 18.098,-126.752 12.101,-28.156 32.292,-51.359 60.632,-66.047 28.332,-14.691 76.19,-23.812 143.57,-23.812 l 60.42,0 0,171.511 c -30,0 -53.98,2.94 -65.21,8.81 -11.22,5.88 -18.03,15.9 -22.87,30.07 -4.85,14.18 -6.65,44.58 -6.65,91.24 0,51.84 -3.66,89.59 -11.61,113.27 -7.96,23.66 -17.39,41.29 -28.62,52.88 -11.233,11.57 -28.358,22.72 -51.506,33.43 22.23,9.67 38.254,19.18 47.996,28.52 12.85,12.44 22.78,28.85 29.72,49.24 9.38,26.61 14.26,63.16 14.6,109.64 0.35,46.48 1.75,74.91 4.18,85.28 4.47,19 12.12,33.16 22.94,42.32 10.83,9.14 27.08,13.79 48.73,13.79 l 18.3,0 0,170 -65.08,0 c -39.4,0 -74.48,-3.67 -105.234,-10.93"
         style="fill:#eee8be;fill-opacity:1;fill-rule:nonzero;stroke:none"
         id="path3390"
         inkscape:connector-curvature="0" /><path
         d="m 1820.43,1494.87 c -6.91,17.11 -10.37,46.06 -10.37,86.84 l 0,17.62 c 0,7.95 0.53,15.89 0.53,23.84 0,61.18 -5.11,105.41 -15.3,132.71 -10.19,27.3 -24.28,48.22 -42.25,62.73 -13.47,11.07 -31.8,19.4 -54.94,24.93 -30.77,7.26 -65.84,10.93 -105.24,10.93 l -72.8,0 0,-170 26.01,0 c 21.65,0 37.9,-4.65 48.72,-13.79 10.84,-9.16 18.48,-23.3 22.95,-42.29 2.44,-10.36 3.82,-38.81 4.16,-85.29 0.36,-46.48 5.22,-83.04 14.6,-109.65 6.95,-20.39 16.85,-36.81 29.71,-49.25 9.73,-9.33 25.71,-18.85 47.96,-28.52 -23.16,-10.71 -40.36,-21.86 -51.59,-33.43 -11.23,-11.59 -20.82,-29.22 -28.77,-52.88 -7.96,-23.68 -11.92,-61.43 -11.92,-113.27 0,-46.66 -2.42,-77.06 -7.26,-91.24 -4.84,-14.17 -14.29,-24.19 -25.51,-30.07 -11.23,-5.87 -29.06,-8.81 -69.06,-8.81 l 0,-171.511 68.13,0 c 67.39,0 115.26,9.121 143.6,23.812 28.33,14.688 48.55,37 60.66,65.168 12.08,28.172 18.14,70.861 18.14,127.191 0,12.44 -0.35,25.11 -1.04,37.54 -0.35,7.6 -0.52,15.49 -0.52,23.44 0,40.09 3.63,68.66 10.88,85.6 7.26,16.92 17.42,29.23 31.08,36.82 13.65,7.61 29.07,11.78 59.07,12.48 l 0,177.81 c -30,0 -46.29,4.14 -59.59,12.44 -13.3,8.29 -23.13,21 -30.04,38.1"
         style="fill:#eee8be;fill-opacity:1;fill-rule:nonzero;stroke:none"
         id="path3392"
         inkscape:connector-curvature="0" /></g></g></svg>